<svg width="25" height="24" viewBox="0 0 25 24" fill="none" xmlns="http://www.w3.org/2000/svg">
<path d="M12.25 22C17.7728 22 22.25 17.5228 22.25 12C22.25 6.47715 17.7728 2 12.25 2C6.72715 2 2.25 6.47715 2.25 12C2.25 17.5228 6.72715 22 12.25 22Z" fill="#FECDD6"/>
<path d="M12.25 6V12L16.25 14" fill="#FECDD6"/>
<path d="M12.25 6V12L16.25 14M22.25 12C22.25 17.5228 17.7728 22 12.25 22C6.72715 22 2.25 17.5228 2.25 12C2.25 6.47715 6.72715 2 12.25 2C17.7728 2 22.25 6.47715 22.25 12Z" stroke="#C01048" stroke-width="2" stroke-linecap="round" stroke-linejoin="round"/>
</svg>
