<svg width="20" height="20" viewBox="0 0 20 20" fill="none" xmlns="http://www.w3.org/2000/svg">
<path d="M3.33325 5.66675C3.33325 4.26662 3.33325 3.56655 3.60574 3.03177C3.84542 2.56137 4.22787 2.17892 4.69828 1.93923C5.23306 1.66675 5.93312 1.66675 7.33325 1.66675H11.6666L16.6666 6.66675V14.3334C16.6666 15.7335 16.6666 16.4336 16.3941 16.9684C16.1544 17.4388 15.772 17.8212 15.3016 18.0609C14.7668 18.3334 14.0667 18.3334 12.6666 18.3334H7.33325C5.93312 18.3334 5.23306 18.3334 4.69828 18.0609C4.22787 17.8212 3.84542 17.4388 3.60574 16.9684C3.33325 16.4336 3.33325 15.7335 3.33325 14.3334V5.66675Z" fill="#FECDD6"/>
<path d="M8.20823 10.0019C8.35506 9.58455 8.64488 9.23259 9.02634 9.00839C9.40781 8.7842 9.85631 8.70225 10.2924 8.77705C10.7285 8.85186 11.1241 9.07859 11.409 9.41709C11.694 9.75559 11.8499 10.184 11.8493 10.6265C11.8493 11.8755 9.97566 12.5001 9.97566 12.5001" fill="#FECDD6"/>
<path d="M11.6666 1.89136V5.33348C11.6666 5.80018 11.6666 6.03354 11.7574 6.2118C11.8373 6.3686 11.9648 6.49608 12.1216 6.57598C12.2999 6.66681 12.5332 6.66681 12.9999 6.66681H16.442M8.20823 10.0019C8.35506 9.58455 8.64488 9.23259 9.02634 9.00839C9.40781 8.7842 9.85631 8.70225 10.2924 8.77705C10.7285 8.85186 11.1241 9.07859 11.409 9.41709C11.694 9.75559 11.8499 10.184 11.8493 10.6265C11.8493 11.8755 9.97566 12.5001 9.97566 12.5001M9.99992 15.0001H10.0083M11.6666 1.66675H7.33325C5.93312 1.66675 5.23306 1.66675 4.69828 1.93923C4.22787 2.17892 3.84542 2.56137 3.60574 3.03177C3.33325 3.56655 3.33325 4.26662 3.33325 5.66675V14.3334C3.33325 15.7335 3.33325 16.4336 3.60574 16.9684C3.84542 17.4388 4.22787 17.8212 4.69828 18.0609C5.23306 18.3334 5.93312 18.3334 7.33325 18.3334H12.6666C14.0667 18.3334 14.7668 18.3334 15.3016 18.0609C15.772 17.8212 16.1544 17.4388 16.3941 16.9684C16.6666 16.4336 16.6666 15.7335 16.6666 14.3334V6.66675L11.6666 1.66675Z" stroke="#C01048" stroke-width="1.66667" stroke-linecap="round" stroke-linejoin="round"/>
</svg>
