<svg width="25" height="24" viewBox="0 0 25 24" fill="none" xmlns="http://www.w3.org/2000/svg">
<path d="M3.75 10.5651C3.75 9.9907 3.75 9.70352 3.82403 9.43905C3.8896 9.20478 3.99737 8.98444 4.14203 8.78886C4.30534 8.56806 4.53202 8.39175 4.98539 8.03912L11.7677 2.764C12.119 2.49075 12.2947 2.35412 12.4887 2.3016C12.6598 2.25526 12.8402 2.25526 13.0113 2.3016C13.2053 2.35412 13.381 2.49075 13.7323 2.764L20.5146 8.03913C20.968 8.39175 21.1947 8.56806 21.358 8.78886C21.5026 8.98444 21.6104 9.20478 21.676 9.43905C21.75 9.70352 21.75 9.9907 21.75 10.5651V17.8C21.75 18.9201 21.75 19.4801 21.532 19.908C21.3403 20.2843 21.0343 20.5903 20.658 20.782C20.2302 21 19.6701 21 18.55 21H6.95C5.82989 21 5.26984 21 4.84202 20.782C4.46569 20.5903 4.15973 20.2843 3.96799 19.908C3.75 19.4801 3.75 18.9201 3.75 17.8V10.5651Z" fill="#FECDD6"/>
<path d="M8.75 17H16.75M11.7677 2.764L4.98539 8.03912C4.53202 8.39175 4.30534 8.56806 4.14203 8.78886C3.99737 8.98444 3.8896 9.20478 3.82403 9.43905C3.75 9.70352 3.75 9.9907 3.75 10.5651V17.8C3.75 18.9201 3.75 19.4801 3.96799 19.908C4.15973 20.2843 4.46569 20.5903 4.84202 20.782C5.26984 21 5.82989 21 6.95 21H18.55C19.6701 21 20.2302 21 20.658 20.782C21.0343 20.5903 21.3403 20.2843 21.532 19.908C21.75 19.4801 21.75 18.9201 21.75 17.8V10.5651C21.75 9.9907 21.75 9.70352 21.676 9.43905C21.6104 9.20478 21.5026 8.98444 21.358 8.78886C21.1947 8.56806 20.968 8.39175 20.5146 8.03913L13.7323 2.764C13.381 2.49075 13.2053 2.35412 13.0113 2.3016C12.8402 2.25526 12.6598 2.25526 12.4887 2.3016C12.2947 2.35412 12.119 2.49075 11.7677 2.764Z" stroke="#C01048" stroke-width="2" stroke-linecap="round" stroke-linejoin="round"/>
</svg>
