<svg width="25" height="24" viewBox="0 0 25 24" fill="none" xmlns="http://www.w3.org/2000/svg">
<path d="M18.1 8C18.1 6.4087 17.4679 4.88258 16.3426 3.75736C15.2174 2.63214 13.6913 2 12.1 2C10.5087 2 8.98257 2.63214 7.85735 3.75736C6.73214 4.88258 6.09999 6.4087 6.09999 8C6.09999 11.0902 5.32046 13.206 4.44966 14.6054C3.71512 15.7859 3.34785 16.3761 3.36132 16.5408C3.37623 16.7231 3.41485 16.7926 3.56177 16.9016C3.69445 17 4.29258 17 5.48885 17H18.7111C19.9074 17 20.5055 17 20.6382 16.9016C20.7851 16.7926 20.8238 16.7231 20.8387 16.5408C20.8521 16.3761 20.4849 15.7859 19.7503 14.6054C18.8795 13.206 18.1 11.0902 18.1 8Z" fill="#FECDD6"/>
<path d="M9.45417 21C10.1593 21.6224 11.0855 22 12.1 22C13.1144 22 14.0407 21.6224 14.7458 21M18.1 8C18.1 6.4087 17.4679 4.88258 16.3426 3.75736C15.2174 2.63214 13.6913 2 12.1 2C10.5087 2 8.98257 2.63214 7.85735 3.75736C6.73214 4.88258 6.09999 6.4087 6.09999 8C6.09999 11.0902 5.32046 13.206 4.44966 14.6054C3.71512 15.7859 3.34785 16.3761 3.36132 16.5408C3.37623 16.7231 3.41485 16.7926 3.56177 16.9016C3.69445 17 4.29258 17 5.48885 17H18.7111C19.9074 17 20.5055 17 20.6382 16.9016C20.7851 16.7926 20.8238 16.7231 20.8387 16.5408C20.8521 16.3761 20.4849 15.7859 19.7503 14.6054C18.8795 13.206 18.1 11.0902 18.1 8Z" stroke="#C01048" stroke-width="2" stroke-linecap="round" stroke-linejoin="round"/>
</svg>
