<svg width="20" height="20" viewBox="0 0 20 20" fill="none" xmlns="http://www.w3.org/2000/svg">
<path d="M10.1 10.8C11.4254 10.8 12.5 9.72548 12.5 8.4C12.5 7.07452 11.4254 6 10.1 6C8.77447 6 7.69995 7.07452 7.69995 8.4C7.69995 9.72548 8.77447 10.8 10.1 10.8Z" fill="#FECDD6"/>
<path d="M10.1 18C13.3 14.8 16.5 11.9346 16.5 8.4C16.5 4.86538 13.6346 2 10.1 2C6.56533 2 3.69995 4.86538 3.69995 8.4C3.69995 11.9346 6.89995 14.8 10.1 18Z" fill="#FECDD6"/>
<path d="M10.1 10.8C11.4254 10.8 12.5 9.72548 12.5 8.4C12.5 7.07452 11.4254 6 10.1 6C8.77447 6 7.69995 7.07452 7.69995 8.4C7.69995 9.72548 8.77447 10.8 10.1 10.8Z" stroke="#C01048" stroke-width="1.6" stroke-linecap="round" stroke-linejoin="round"/>
<path d="M10.1 18C13.3 14.8 16.5 11.9346 16.5 8.4C16.5 4.86538 13.6346 2 10.1 2C6.56533 2 3.69995 4.86538 3.69995 8.4C3.69995 11.9346 6.89995 14.8 10.1 18Z" stroke="#C01048" stroke-width="1.6" stroke-linecap="round" stroke-linejoin="round"/>
</svg>
